<svg data-testid="visa" viewBox="0 0 24 24" fill="none"
    xmlns="http://www.w3.org/2000/svg" role="img" aria-label="Visa" class="svelte-1a8ozhr medium-2Cua4u">
    <title>Visa</title>
    <path fill-rule="evenodd" clip-rule="evenodd" d="M6.50019 15.2897H4.59624L3.16851 9.31627C3.10075 9.04149 2.95686 8.79857 2.74521 8.68408C2.217 8.39636 1.63496 8.16738 1 8.05189V7.82191H4.06711C4.49042 7.82191 4.8079 8.16738 4.86081 8.56859L5.60159 12.8774L7.50462 7.82191H9.35565L6.50019 15.2897ZM10.4143 15.2897H8.61621L10.0969 7.82191H11.895L10.4143 15.2897ZM14.2212 9.89094C14.2742 9.48873 14.5916 9.25875 14.962 9.25875C15.5441 9.20101 16.1781 9.31649 16.7072 9.60322L17.0247 7.99537C16.4956 7.76539 15.9135 7.6499 15.3853 7.6499C13.6401 7.6499 12.3702 8.6843 12.3702 10.1199C12.3702 11.2121 13.2697 11.7855 13.9047 12.131C14.5916 12.4754 14.8562 12.7054 14.8033 13.0499C14.8033 13.5666 14.2742 13.7966 13.746 13.7966C13.111 13.7966 12.476 13.6243 11.8949 13.3366L11.5774 14.9455C12.2124 15.2322 12.8993 15.3477 13.5343 15.3477C15.4912 15.4044 16.7072 14.371 16.7072 12.8199C16.7072 10.8666 14.2212 10.7521 14.2212 9.89094ZM22.9999 15.2897L21.5722 7.82191H20.0386C19.7212 7.82191 19.4037 8.05189 19.2979 8.39636L16.6541 15.2897H18.5051L18.8746 14.1986H21.1489L21.3605 15.2897H22.9999ZM20.3033 9.83307L20.8315 12.6476H19.3509L20.3033 9.83307Z" fill="#1434CB"></path>
</svg>