<svg data-testid="efecty" viewBox="0 0 24 24" fill="none"
    xmlns="http://www.w3.org/2000/svg" role="img" aria-label="Efecty" class="svelte-qjd9bb medium-1ncD-k">
    <title>Efecty</title>
    <path d="M12 22C17.5228 22 22 17.5228 22 12C22 6.47715 17.5228 2 12 2C6.47715 2 2 6.47715 2 12C2 17.5228 6.47715 22 12 22Z" fill="#F9D94A"></path>
    <path fill-rule="evenodd" clip-rule="evenodd" d="M13.491 4C17.8253 4 20.6798 7.5764 19.8594 12C19.0391 16.4236 14.8545 20 10.5146 20C6.17469 20 3.32023 16.4236 4.14054 12C4.9664 7.58209 9.14554 4 13.491 4ZM15.5584 5.04051C18.2465 6.00711 19.804 8.75906 19.1999 12C18.496 15.7811 15.1094 18.8969 11.4291 19.2893C11.1353 19.2779 11.1298 19.113 11.1243 18.8571C11.1409 18.334 11.1575 17.8053 11.1686 17.2822C11.1741 17.2026 11.1464 17.1798 11.1132 17.1684C10.7363 17.1286 10.3649 17.0434 9.99356 16.924C9.59449 16.7647 9.19542 16.5316 8.79636 16.2644C8.61345 16.1734 8.63562 15.7356 8.64116 15.565C8.67442 15.2523 8.89612 14.5359 9.25639 14.5018C9.68318 14.479 9.88825 14.7122 10.315 14.9225C11.0633 15.2864 12.1053 15.4968 12.8757 15.1272C13.2471 14.8941 13.3358 14.5814 13.1639 14.1834C12.8591 13.5352 11.4125 13.0007 10.7584 12.6766C9.18434 11.9886 8.3086 10.5956 8.58573 8.93532C8.79081 7.71286 9.91042 6.78038 11.0799 6.60981V6.03554C9.63329 6.46766 8.53585 7.32054 7.54926 8.30988C6.11926 9.74271 5.27678 11.5565 5.21027 13.8706C5.32112 16.7022 6.75667 17.9588 8.25872 18.8969C5.6814 17.8735 4.20706 15.1727 4.80012 12C5.52066 8.11656 9.07349 4.93817 12.8702 4.6823C13.0198 4.77328 13.0309 4.79033 13.1085 4.99502C13.0753 5.48401 13.0476 5.97299 13.0143 6.46198C13.7626 6.61549 14.472 6.83724 15.0429 7.33191C15.0595 8.45771 14.2392 8.92395 13.9288 8.75338C13.9455 8.7022 12.6928 8.34399 12.4323 8.28145C12.1164 8.23028 11.806 8.24733 11.4901 8.39517C11.1243 8.57143 10.9469 8.83866 11.1243 9.25942C11.2739 9.57214 11.5233 9.77114 11.8005 9.9474C12.5875 10.3852 13.3746 10.823 14.1672 11.2608C14.8489 11.6532 15.3311 12.1592 15.647 12.779C15.8743 13.3873 15.9242 14.0071 15.7912 14.6382C15.636 15.15 15.4475 15.5991 15.1593 15.8778C14.921 16.1564 14.6549 16.3781 14.3722 16.5316C13.9732 16.7477 13.5686 16.941 13.1529 17.0092C13.1418 17.2708 13.1307 17.5267 13.1141 17.7882C13.1473 17.8053 13.1806 17.7996 13.2194 17.7882C14.1117 17.4925 14.8933 16.9751 15.6581 16.4065C16.6503 15.5082 17.5759 14.57 18.0581 13.3589C18.3907 12.6823 18.6456 11.9318 18.7676 11.0505C19.0336 8.5828 18.1579 6.25728 15.5584 5.04051Z" fill="black"></path>
</svg>