<svg data-testid="amex" viewBox="0 0 24 24" fill="none"
    xmlns="http://www.w3.org/2000/svg" role="img" aria-label="American Express" class="svelte-o8jh60 medium-3iYZSY">
    <title>American Express</title>
    <path fill-rule="evenodd" clip-rule="evenodd" d="M9.3234 4H5.71066L2 12.4659H5.01243V19.9801L14.3048 19.9998L15.7645 18.363L17.2346 19.9932H20V17.6057L18.2674 15.7274L20 13.8662V11.5273L19.9997 11.5273V4H16.5933L15.8216 6.17095L15.0526 4H10.5925V6.89679L9.3234 4Z" fill="white"></path>
    <path fill-rule="evenodd" clip-rule="evenodd" d="M11.6088 11.5197L11.6096 11.5214H9.55967L9.01 10.1996H6.02919L5.47951 11.5214H3.47925L6.39477 4.92055H8.70578L11.5809 11.4562V4.91895L14.3919 4.92945L15.8386 8.98653L17.2944 4.91895H19.9997V11.5197L18.2593 11.5355V7.00065L16.6155 11.5197H15.0265L13.3487 6.98621V11.5197H11.6088ZM6.64546 8.71775L7.52025 6.61636L8.39373 8.71775H6.64546ZM6.01215 12.4463V19.0523H11.5562H11.5847H13.8777L15.7761 16.9378L17.6928 19.0523H19.9999V18.9578L16.9825 15.7447L19.9999 12.4988V12.4463H17.7163L15.827 14.5398L13.943 12.4463H11.5847H11.5562H6.01215ZM11.5847 12.4767V13.9675H7.81657V15.0005H11.4946V16.4968H7.81657V17.5114H11.5847V19.0218L14.6402 15.7447L11.5847 12.4767Z" fill="#016FD0"></path>
</svg>