<svg data-testid="pse" viewBox="0 0 24 24" fill="none"
    xmlns="http://www.w3.org/2000/svg" role="img" aria-label="PSE" class="svelte-4ib8di medium-DlLPtz">
    <title>PSE</title>
    <g clip-path="url(#clip0_8671_2853)">
        <path d="M12 22.0444C17.5228 22.0444 22 17.5573 22 12.0222C22 6.48709 17.5228 2 12 2C6.47715 2 2 6.48709 2 12.0222C2 17.5573 6.47715 22.0444 12 22.0444Z" fill="url(#paint0_radial_8671_2853)"></path>
        <path fill-rule="evenodd" clip-rule="evenodd" d="M18.2602 9.52684C18.253 9.52478 18.2455 9.52979 18.238 9.53484C18.2316 9.53916 18.2252 9.54352 18.2187 9.54352H16.4681C15.6756 9.54352 15.3177 10.4611 15.3029 10.5012C15.3017 10.5043 15.2998 10.5053 15.2998 10.5053C15.2998 10.5053 15.2979 10.5062 15.2971 10.5097C15.2789 10.5918 14.8522 12.5216 14.8666 13.1587C14.8803 13.7581 15.4907 13.976 15.8116 14.0103C15.8144 14.0107 15.8172 14.0094 15.82 14.0081C15.8225 14.0069 15.8251 14.0058 15.8276 14.0058H18.2614C18.3441 14.0058 18.4112 13.9291 18.4112 13.8464C18.4112 13.7638 18.3442 13.6871 18.2614 13.6871H15.8368C15.7606 13.6871 15.1768 13.598 15.1663 13.1341C15.1606 12.885 15.2315 12.4084 15.3169 11.9269L18.704 11.9017C18.7763 11.9011 18.8379 11.8505 18.8503 11.7792C18.8569 11.742 19.009 10.8758 19.009 10.3564C19.0089 9.74395 18.3038 9.53946 18.2612 9.52713L18.2602 9.52684ZM18.5755 11.6061L15.3719 11.6329C15.4567 11.1828 15.5428 10.8027 15.5757 10.6573L15.5872 10.6063C15.6214 10.5207 15.9153 9.86214 16.4681 9.86214H18.195C18.2885 9.86214 18.7094 10.0275 18.7094 10.3777C18.7094 10.7607 18.6174 11.3452 18.5755 11.6061ZM14.6929 9.54348H12.35L12.3408 9.54322C12.3333 9.54291 12.3259 9.54261 12.3186 9.54411C11.9458 9.62496 11.2433 10.0061 11.2469 10.8383C11.2275 11.1586 11.3678 11.6683 12.0374 11.8808H13.7075C13.7815 11.8808 14.2376 11.9851 14.2073 12.7807C14.1833 13.4092 13.7581 13.6092 13.528 13.7174C13.4645 13.7473 13.4158 13.7702 13.3946 13.7931H10.8067C10.7251 13.7931 10.6589 13.8709 10.6589 13.9525C10.6589 14.0341 10.7251 14.1119 10.8067 14.1119H13.4088C13.4131 14.1119 13.4173 14.1017 13.4216 14.0916C13.4257 14.0819 13.4297 14.0722 13.4338 14.0715C13.789 14.0107 14.4695 13.6463 14.5028 12.7746C14.5457 11.6473 13.7301 11.5761 13.7218 11.5756L12.0733 11.5708C11.5101 11.4677 11.5405 10.8698 11.5422 10.8438C11.5424 10.8415 11.5425 10.8459 11.5425 10.8459C11.5364 10.0908 12.254 9.8622 12.3674 9.8622H14.693C14.7746 9.8622 14.8408 9.78443 14.8408 9.70284C14.8407 9.62124 14.7745 9.54348 14.6929 9.54348ZM9.99286 9.54358C10.1342 9.54358 10.8892 9.84286 10.8014 10.4407C10.801 10.443 10.8008 10.4469 10.8006 10.451C10.8003 10.4563 10.8 10.4619 10.7994 10.4649L10.3931 12.954C10.3922 12.9595 10.3909 12.9648 10.3896 12.97C10.3807 13.0011 10.1672 13.734 9.45697 13.947C9.44475 13.9507 9.43222 13.9527 9.41936 13.953L7.92231 13.9959C7.91625 13.9964 7.91041 13.996 7.90457 13.9953C7.88088 13.9931 7.40789 13.9427 7.02765 13.463C6.86637 14.3488 6.70542 15.2372 6.60725 15.7796C6.59461 15.8502 6.5332 15.8995 6.46414 15.8995C6.45554 15.8995 6.44683 15.8986 6.43811 15.897C6.35896 15.8827 6.30637 15.8068 6.32072 15.7277C6.32072 15.7277 6.55275 14.4444 6.78648 13.1611C6.90335 12.5194 7.02053 11.8774 7.10935 11.3961C7.15386 11.1553 7.19115 10.9539 7.21782 10.8134L7.21949 10.8046C7.24055 10.6932 7.25468 10.6185 7.27073 10.5697L7.26818 10.5666C7.43285 10.1168 7.94558 9.63048 8.32316 9.57035C8.32853 9.56954 8.33388 9.56769 8.33919 9.56585C8.34713 9.56311 8.35498 9.56039 8.36268 9.56122C8.4028 9.56259 8.58629 9.55976 8.83081 9.55599C9.17367 9.55071 9.63696 9.54358 9.99286 9.54358ZM10.1073 12.8973L10.5107 10.4351C10.5527 10.1606 10.1322 9.86709 9.95928 9.86836C9.85251 9.86878 9.51137 9.86995 9.17001 9.87049C8.96401 9.87091 8.7578 9.87102 8.60343 9.8708L8.59903 9.87079C8.49559 9.87059 8.42055 9.87044 8.36544 9.86708C8.11886 9.90926 7.67934 10.3015 7.54345 10.6666C7.51785 10.7812 7.3196 11.8611 7.10372 13.046C7.40013 13.6106 7.85761 13.6948 7.92518 13.7042L9.39131 13.6624C9.90074 13.4985 10.0862 12.9633 10.1073 12.8973Z" fill="white"></path>
        <path fill-rule="evenodd" clip-rule="evenodd" d="M3.51048 7.62318C3.51048 7.42737 3.39159 7.26286 3.22734 7.20312C3.08859 7.45473 2.96036 7.71305 2.84338 7.97743C2.91329 8.03397 2.99935 8.06879 3.09369 8.06879C3.32392 8.06879 3.51048 7.86925 3.51048 7.62318ZM3.93131 9.47545C4.1615 9.47545 4.3481 9.27595 4.3481 9.02984C4.3481 8.78374 4.1615 8.58424 3.93131 8.58424C3.70113 8.58424 3.51453 8.78374 3.51453 9.02984C3.51453 9.27595 3.70113 9.47545 3.93131 9.47545ZM2.55043 8.71942C2.62352 8.79971 2.66888 8.90906 2.66888 9.02991C2.66888 9.25043 2.51866 9.43229 2.3219 9.46796C2.38841 9.21433 2.46479 8.96475 2.55043 8.71942ZM3.98942 14.9043C4.2196 14.9043 4.4062 14.7048 4.4062 14.4587C4.4062 14.2126 4.2196 14.0131 3.98942 14.0131C3.75923 14.0131 3.57263 14.2126 3.57263 14.4587C3.57263 14.7048 3.75923 14.9043 3.98942 14.9043ZM2.2207 14.0955C2.38803 14.1208 2.51712 14.273 2.51712 14.4588C2.51712 14.5764 2.46453 14.68 2.3841 14.7475C2.32238 14.5331 2.26809 14.3156 2.2207 14.0955ZM3.50857 15.9118C3.50857 15.6657 3.32201 15.4662 3.09178 15.4662C2.92742 15.4662 2.78676 15.5687 2.71887 15.7164C2.80514 15.9298 2.89842 16.1395 2.99882 16.3453C3.02878 16.3526 3.0597 16.3573 3.09178 16.3573C3.3219 16.3574 3.50857 16.1579 3.50857 15.9118ZM3.38019 13.074H4.21599L4.94098 11.7961H2C2.00138 11.7249 2.00372 11.654 2.00659 11.5832H4.03432L3.28871 10.3055H2.14098C2.15936 10.1984 2.17891 10.0919 2.20058 9.98602H3.12319H3.35766H3.4212L4.33222 11.5832H6.54842V11.7961H5.19649L4.31989 13.3933H4.29992H4.06438H3.38019C3.326 13.6063 3.17078 13.6937 2.9855 13.6937C2.75527 13.6937 2.56871 13.4855 2.56871 13.2394C2.56871 12.9934 2.75527 12.7843 2.9855 12.7843C3.17078 12.7843 3.326 12.9675 3.38019 13.074Z" fill="#FDB718"></path>
        <path fill-rule="evenodd" clip-rule="evenodd" d="M9.42899 7.87728L9.32444 7.8584L9.1145 9.02635L9.21906 9.04523L9.33554 8.39718C9.33673 8.39511 9.33821 8.39256 9.33999 8.38963C9.34561 8.38038 9.35403 8.3675 9.36499 8.3534C9.38578 8.32668 9.41334 8.29865 9.44559 8.28101L9.44943 8.28069C9.45839 8.27998 9.47136 8.27907 9.48714 8.27822C9.5188 8.27652 9.5613 8.27513 9.60531 8.2763C9.64974 8.27747 9.69362 8.2812 9.72883 8.28901C9.74641 8.29291 9.7602 8.29748 9.77019 8.30232C9.7805 8.30731 9.78407 8.31168 9.78407 8.31168L9.79197 8.32293L9.80343 8.32849L9.80666 8.33066C9.80989 8.33302 9.81466 8.33705 9.81946 8.343C9.82812 8.35372 9.83867 8.3727 9.83806 8.40504L9.73467 9.00755L9.83938 9.0256L9.94383 8.4195L9.94411 8.41257C9.94665 8.35028 9.92583 8.30546 9.90203 8.276C9.89046 8.26167 9.8786 8.25146 9.86931 8.24466L9.86282 8.24016C9.84931 8.22503 9.83257 8.21428 9.81643 8.20646C9.79656 8.19683 9.77422 8.19002 9.75179 8.18505C9.707 8.17511 9.65542 8.17111 9.60811 8.16986C9.56037 8.1686 9.51487 8.1701 9.48146 8.17189C9.4647 8.17279 9.45086 8.17377 9.44116 8.17453L9.42983 8.17547L9.42675 8.17575L9.42556 8.17586L9.41621 8.17677L9.40773 8.18084C9.39458 8.18716 9.38219 8.19442 9.37058 8.20228L9.42899 7.87728ZM9.37058 8.20228C9.33213 8.22831 9.30219 8.26096 9.2812 8.28795C9.26724 8.30589 9.25653 8.32227 9.24924 8.33427C9.24558 8.34029 9.24276 8.34526 9.24078 8.34885L9.23846 8.35317L9.23743 8.35515L9.33243 8.40283L9.33381 8.40027C9.33429 8.3994 9.33487 8.39837 9.33554 8.39718L9.37058 8.20228ZM8.19977 8.28211H7.76255V8.17563H8.21706L8.22441 8.1778L8.2257 8.17819L8.22777 8.17887L8.234 8.18112C8.239 8.18304 8.2457 8.18587 8.25347 8.1898C8.26887 8.1976 8.28927 8.21015 8.30895 8.22924C8.35014 8.2692 8.38405 8.33423 8.3698 8.42962L8.27853 9.06972H7.75293L7.744 9.06641L7.74251 9.06584L7.73985 9.06476L7.73135 9.06102C7.72443 9.0578 7.71502 9.05303 7.70425 9.04655C7.68298 9.03373 7.65503 9.01335 7.63077 8.98357C7.60619 8.9534 7.5853 8.91339 7.57963 8.86282C7.57397 8.81232 7.58397 8.75545 7.61442 8.69222L7.62004 8.68055L7.66226 8.71536L7.62126 8.68152L7.62285 8.67961L7.62667 8.67517C7.62991 8.67145 7.63454 8.66627 7.64034 8.66012C7.65187 8.64788 7.66834 8.63143 7.68799 8.61482C7.70748 8.59835 7.73116 8.58082 7.75713 8.56721C7.78273 8.55379 7.81382 8.54244 7.84723 8.54244H7.84901L8.24449 8.55578L8.26465 8.41438C8.27349 8.35549 8.25355 8.32368 8.23506 8.30575C8.22489 8.29588 8.21399 8.28911 8.20555 8.28484L8.19977 8.28211ZM8.22937 8.66181L7.84651 8.64893C7.83664 8.6491 7.82317 8.65275 7.80637 8.66156C7.78953 8.67039 7.77239 8.68278 7.75648 8.69622C7.74072 8.70954 7.7272 8.72301 7.7176 8.73321C7.71321 8.73787 7.7097 8.74178 7.70725 8.74457C7.68627 8.79031 7.68232 8.82512 7.68521 8.85094C7.68822 8.87782 7.69911 8.8991 7.71306 8.91622C7.72733 8.93373 7.74464 8.94665 7.759 8.9553C7.76471 8.95874 7.76973 8.96137 7.77358 8.96324H8.18639L8.22937 8.66181ZM8.6591 8.17563H9.1186V8.28211H8.68589L8.67708 8.28793C8.66438 8.29669 8.64665 8.31044 8.62777 8.3298C8.59014 8.36835 8.54811 8.42881 8.53119 8.51694L8.52966 8.52491L8.52829 8.52705L8.52555 8.53563C8.52318 8.5433 8.51985 8.55473 8.51618 8.56921C8.50883 8.59824 8.50022 8.63912 8.49525 8.68623C8.48587 8.77508 8.49006 8.88001 8.53372 8.96985L8.55615 8.97485H8.97018V9.08133H8.5385L8.53878 9.08006L8.46379 9.06334L8.45213 9.0429C8.38249 8.92076 8.3785 8.78018 8.3896 8.67502C8.39522 8.62175 8.40491 8.57575 8.41321 8.54301C8.41737 8.5266 8.4212 8.51342 8.42404 8.5042L8.42749 8.49341C8.44959 8.38271 8.50332 8.30503 8.55182 8.25534C8.57627 8.23029 8.59947 8.2122 8.61686 8.20021C8.62556 8.1942 8.63287 8.18969 8.63821 8.18657L8.6447 8.18292L8.64673 8.18184L8.64768 8.18135L8.6591 8.17563Z" fill="white"></path>
    </g>
    <defs>
        <radialGradient id="paint0_radial_8671_2853" cx="0" cy="0" r="1" gradientUnits="userSpaceOnUse" gradientTransform="translate(12.1788 11.9863) scale(9.99981 10.0224)">
            <stop offset="0.3155" stop-color="#2D5CA8"></stop>
            <stop offset="0.5312" stop-color="#285496"></stop>
            <stop offset="0.7289" stop-color="#1F4272"></stop>
            <stop offset="1" stop-color="#0D2D4D"></stop>
        </radialGradient>
        <clipPath id="clip0_8671_2853">
            <rect width="20" height="20" fill="white" transform="translate(2 2)"></rect>
        </clipPath>
    </defs>
</svg>